<svg xmlns="http://www.w3.org/2000/svg" viewBox="0 0 960 540" role="img" aria-label="navigation to parking">
  <defs>
    <linearGradient id="bg" x1="0" y1="0" x2="1" y2="1">
      <stop offset="0" stop-color="#07111f"/>
      <stop offset=".52" stop-color="#2563eb"/>
      <stop offset="1" stop-color="#22c55e"/>
    </linearGradient>
    <radialGradient id="glow" cx=".2" cy=".15" r=".75">
      <stop offset="0" stop-color="#ffffff" stop-opacity=".42"/>
      <stop offset="1" stop-color="#ffffff" stop-opacity="0"/>
    </radialGradient>
    <filter id="shadow" x="-20%" y="-20%" width="140%" height="140%">
      <feDropShadow dx="0" dy="18" stdDeviation="18" flood-color="#020617" flood-opacity=".35"/>
    </filter>
  </defs>
  <rect width="960" height="540" rx="42" fill="url(#bg)"/>
  <rect width="960" height="540" rx="42" fill="url(#glow)"/>
  <path d="M0 412 C180 350 330 470 500 405 C660 345 760 290 960 335 L960 540 L0 540 Z" fill="#020617" opacity=".22"/>
  <g opacity=".18" stroke="#fff" stroke-width="3" fill="none">
    <path d="M80 88h150v84H80zM705 78h120v120H705zM620 405h190"/>
    <circle cx="830" cy="126" r="36"/>
  </g>
  <g filter="url(#shadow)">
    <path d="M155 376c98-140 194-38 294-142 94-98 190-58 340-142" stroke="#fff" stroke-width="26" stroke-linecap="round" fill="none"/>
    <path d="M748 80l100 8-43 94z" fill="#22c55e"/>
    <circle cx="160" cy="376" r="30" fill="#ff006e"/>
    <circle cx="480" cy="238" r="24" fill="#ffb703"/>
    <rect x="300" y="330" width="104" height="64" rx="10" fill="#fff" opacity=".22"/>
    <rect x="565" y="160" width="104" height="64" rx="10" fill="#fff" opacity=".22"/>
  </g>
  <circle cx="78" cy="78" r="42" fill="#fff" opacity=".18"/>
  <text x="78" y="88" text-anchor="middle" font-family="Arial, sans-serif" font-size="34" font-weight="800" fill="#fff">13</text>
</svg>
