<svg xmlns="http://www.w3.org/2000/svg" viewBox="0 0 960 540" role="img" aria-label="frustrated driver">
  <defs>
    <linearGradient id="bg" x1="0" y1="0" x2="1" y2="1">
      <stop offset="0" stop-color="#07111f"/>
      <stop offset=".52" stop-color="#ff006e"/>
      <stop offset="1" stop-color="#7c3aed"/>
    </linearGradient>
    <radialGradient id="glow" cx=".2" cy=".15" r=".75">
      <stop offset="0" stop-color="#ffffff" stop-opacity=".42"/>
      <stop offset="1" stop-color="#ffffff" stop-opacity="0"/>
    </radialGradient>
    <filter id="shadow" x="-20%" y="-20%" width="140%" height="140%">
      <feDropShadow dx="0" dy="18" stdDeviation="18" flood-color="#020617" flood-opacity=".35"/>
    </filter>
  </defs>
  <rect width="960" height="540" rx="42" fill="url(#bg)"/>
  <rect width="960" height="540" rx="42" fill="url(#glow)"/>
  <path d="M0 412 C180 350 330 470 500 405 C660 345 760 290 960 335 L960 540 L0 540 Z" fill="#020617" opacity=".22"/>
  <g opacity=".18" stroke="#fff" stroke-width="3" fill="none">
    <path d="M80 88h150v84H80zM705 78h120v120H705zM620 405h190"/>
    <circle cx="830" cy="126" r="36"/>
  </g>
  <g filter="url(#shadow)">
    <circle cx="300" cy="245" r="112" fill="#fff" opacity=".92"/>
    <circle cx="258" cy="222" r="12" fill="#111827"/><circle cx="342" cy="222" r="12" fill="#111827"/>
    <path d="M258 295c35-28 75-28 110 0" stroke="#111827" stroke-width="14" stroke-linecap="round" fill="none"/>
    <path d="M195 156l-34-42M400 156l40-42" stroke="#ffb703" stroke-width="18" stroke-linecap="round"/>
    <g transform="translate(620 340) scale(0.63)">
      <path d="M-150 34h300c18 0 32 14 32 32v26h-364V66c0-18 14-32 32-32z" fill="#f8fafc" opacity=".96"/>
      <path d="M-98 34l44-62h110l58 62z" fill="#f8fafc" opacity=".92"/>
      <path d="M-46-18h82l34 52H-82z" fill="#0f172a" opacity=".32"/>
      <circle cx="-92" cy="96" r="34" fill="#111827"/><circle cx="92" cy="96" r="34" fill="#111827"/>
      <circle cx="-92" cy="96" r="14" fill="#94a3b8"/><circle cx="92" cy="96" r="14" fill="#94a3b8"/>
    </g>
    <path d="M530 165h260" stroke="#fff" stroke-width="18" stroke-linecap="round" opacity=".7"/>
  </g>
  <circle cx="78" cy="78" r="42" fill="#fff" opacity=".18"/>
  <text x="78" y="88" text-anchor="middle" font-family="Arial, sans-serif" font-size="34" font-weight="800" fill="#fff">06</text>
</svg>
