<svg xmlns="http://www.w3.org/2000/svg" viewBox="0 0 960 540" role="img" aria-label="AI detects spaces">
  <defs>
    <linearGradient id="bg" x1="0" y1="0" x2="1" y2="1">
      <stop offset="0" stop-color="#07111f"/>
      <stop offset=".52" stop-color="#8b5cf6"/>
      <stop offset="1" stop-color="#00f5d4"/>
    </linearGradient>
    <radialGradient id="glow" cx=".2" cy=".15" r=".75">
      <stop offset="0" stop-color="#ffffff" stop-opacity=".42"/>
      <stop offset="1" stop-color="#ffffff" stop-opacity="0"/>
    </radialGradient>
    <filter id="shadow" x="-20%" y="-20%" width="140%" height="140%">
      <feDropShadow dx="0" dy="18" stdDeviation="18" flood-color="#020617" flood-opacity=".35"/>
    </filter>
  </defs>
  <rect width="960" height="540" rx="42" fill="url(#bg)"/>
  <rect width="960" height="540" rx="42" fill="url(#glow)"/>
  <path d="M0 412 C180 350 330 470 500 405 C660 345 760 290 960 335 L960 540 L0 540 Z" fill="#020617" opacity=".22"/>
  <g opacity=".18" stroke="#fff" stroke-width="3" fill="none">
    <path d="M80 88h150v84H80zM705 78h120v120H705zM620 405h190"/>
    <circle cx="830" cy="126" r="36"/>
  </g>
  <g filter="url(#shadow)">
    <rect x="195" y="160" width="88" height="56" rx="8" fill="#ffffff" opacity=".18" stroke="#fff" stroke-width="3"/>
    <rect x="209" y="172" width="60" height="32" rx="14" fill="#fff" opacity=".9"/>
    <rect x="310" y="160" width="88" height="56" rx="8" fill="#ffffff" opacity=".18" stroke="#fff" stroke-width="3"/>
    <rect x="324" y="172" width="60" height="32" rx="14" fill="#fff" opacity=".9"/>
    <rect x="425" y="160" width="88" height="56" rx="8" fill="#ffffff" opacity=".18" stroke="#fff" stroke-width="3"/>
    <rect x="439" y="172" width="60" height="32" rx="14" fill="#fff" opacity=".9"/>
    <rect x="540" y="160" width="88" height="56" rx="8" fill="#ffffff" opacity=".18" stroke="#fff" stroke-width="3"/>
    <rect x="554" y="172" width="60" height="32" rx="14" fill="#fff" opacity=".9"/>
    <rect x="655" y="160" width="88" height="56" rx="8" fill="#ffffff" opacity=".18" stroke="#fff" stroke-width="3"/>
    <rect x="669" y="172" width="60" height="32" rx="14" fill="#fff" opacity=".9"/>
    <rect x="195" y="252" width="88" height="56" rx="8" fill="#ffffff" opacity=".18" stroke="#fff" stroke-width="3"/>
    <rect x="209" y="264" width="60" height="32" rx="14" fill="#fff" opacity=".9"/>
    <rect x="310" y="252" width="88" height="56" rx="8" fill="#ffffff" opacity=".18" stroke="#fff" stroke-width="3"/>
    <rect x="324" y="264" width="60" height="32" rx="14" fill="#fff" opacity=".9"/>
    <rect x="425" y="252" width="88" height="56" rx="8" fill="#ffffff" opacity=".18" stroke="#fff" stroke-width="3"/>
    <rect x="439" y="264" width="60" height="32" rx="14" fill="#fff" opacity=".9"/>
    <rect x="540" y="252" width="88" height="56" rx="8" fill="#ffffff" opacity=".18" stroke="#fff" stroke-width="3"/>
    <rect x="554" y="264" width="60" height="32" rx="14" fill="#fff" opacity=".9"/>
    <rect x="655" y="252" width="88" height="56" rx="8" fill="#ffffff" opacity=".18" stroke="#fff" stroke-width="3"/>
    <rect x="669" y="264" width="60" height="32" rx="14" fill="#fff" opacity=".9"/>
    <rect x="195" y="344" width="88" height="56" rx="8" fill="#ffffff" opacity=".18" stroke="#fff" stroke-width="3"/>
    <rect x="209" y="356" width="60" height="32" rx="14" fill="#fff" opacity=".9"/>
    <rect x="310" y="344" width="88" height="56" rx="8" fill="#ffffff" opacity=".18" stroke="#fff" stroke-width="3"/>
    <rect x="324" y="356" width="60" height="32" rx="14" fill="#fff" opacity=".9"/>
    <rect x="425" y="344" width="88" height="56" rx="8" fill="#ffffff" opacity=".18" stroke="#fff" stroke-width="3"/>
    <rect x="439" y="356" width="60" height="32" rx="14" fill="#fff" opacity=".9"/>
    <rect x="540" y="344" width="88" height="56" rx="8" fill="#ffffff" opacity=".18" stroke="#fff" stroke-width="3"/>
    <rect x="554" y="356" width="60" height="32" rx="14" fill="#fff" opacity=".9"/>
    <rect x="655" y="344" width="88" height="56" rx="8" fill="#ffffff" opacity=".18" stroke="#fff" stroke-width="3"/>
    <rect x="669" y="356" width="60" height="32" rx="14" fill="#22c55e" opacity=".95"/>
    <path d="M689 373l12 12 25-28" fill="none" stroke="#fff" stroke-width="8" stroke-linecap="round" stroke-linejoin="round"/>
    <rect x="155" y="122" width="650" height="292" rx="32" fill="none" stroke="#00f5d4" stroke-width="9" stroke-dasharray="24 18"/>
    <circle cx="480" cy="268" r="96" fill="#111827" opacity=".82"/>
    <text x="480" y="292" text-anchor="middle" font-family="Arial, sans-serif" font-size="70" font-weight="900" fill="#00f5d4">AI</text>
  </g>
  <circle cx="78" cy="78" r="42" fill="#fff" opacity=".18"/>
  <text x="78" y="88" text-anchor="middle" font-family="Arial, sans-serif" font-size="34" font-weight="800" fill="#fff">12</text>
</svg>
