<svg xmlns="http://www.w3.org/2000/svg" viewBox="0 0 960 540" role="img" aria-label="train station and meeting">
  <defs>
    <linearGradient id="bg" x1="0" y1="0" x2="1" y2="1">
      <stop offset="0" stop-color="#07111f"/>
      <stop offset=".52" stop-color="#38bdf8"/>
      <stop offset="1" stop-color="#8b5cf6"/>
    </linearGradient>
    <radialGradient id="glow" cx=".2" cy=".15" r=".75">
      <stop offset="0" stop-color="#ffffff" stop-opacity=".42"/>
      <stop offset="1" stop-color="#ffffff" stop-opacity="0"/>
    </radialGradient>
    <filter id="shadow" x="-20%" y="-20%" width="140%" height="140%">
      <feDropShadow dx="0" dy="18" stdDeviation="18" flood-color="#020617" flood-opacity=".35"/>
    </filter>
  </defs>
  <rect width="960" height="540" rx="42" fill="url(#bg)"/>
  <rect width="960" height="540" rx="42" fill="url(#glow)"/>
  <path d="M0 412 C180 350 330 470 500 405 C660 345 760 290 960 335 L960 540 L0 540 Z" fill="#020617" opacity=".22"/>
  <g opacity=".18" stroke="#fff" stroke-width="3" fill="none">
    <path d="M80 88h150v84H80zM705 78h120v120H705zM620 405h190"/>
    <circle cx="830" cy="126" r="36"/>
  </g>
  <g filter="url(#shadow)">
    <rect x="95" y="245" width="430" height="132" rx="32" fill="#fff" opacity=".92"/>
    <rect x="145" y="280" width="72" height="44" rx="10" fill="#2563eb" opacity=".75"/>
    <rect x="245" y="280" width="72" height="44" rx="10" fill="#2563eb" opacity=".75"/>
    <rect x="345" y="280" width="72" height="44" rx="10" fill="#2563eb" opacity=".75"/>
    <circle cx="185" cy="385" r="26" fill="#111827"/><circle cx="432" cy="385" r="26" fill="#111827"/>
    <rect x="620" y="136" width="190" height="220" rx="20" fill="#fff" opacity=".9"/>
    <circle cx="670" cy="208" r="28" fill="#ffb703"/><circle cx="760" cy="208" r="28" fill="#00f5d4"/>
    <path d="M650 278h140M650 318h92" stroke="#111827" stroke-width="16" stroke-linecap="round" opacity=".5"/>
  </g>
  <circle cx="78" cy="78" r="42" fill="#fff" opacity=".18"/>
  <text x="78" y="88" text-anchor="middle" font-family="Arial, sans-serif" font-size="34" font-weight="800" fill="#fff">03</text>
</svg>
